<svg id="Twotone" height="512" viewBox="0 0 64 64" width="512" xmlns="http://www.w3.org/2000/svg"><g fill="#cff09e"><path d="m49.67 12.78a6 6 0 0 1 -2.67-5v-2.78h-4v9l8 6v-6.33z"/><path d="m24 30h30v-5h-44v36h44v-7h-16a18 18 0 0 1 -18-18v-2a4 4 0 0 1 4-4z"/><path d="m61 25h-58l29-22z"/></g><path d="m9.59 25h44.82l-22.41-17z" fill="#a8dba8"/><path d="m34 33h12a0 0 0 0 1 0 0 16 16 0 0 1 -16 16h-12a0 0 0 0 1 0 0 16 16 0 0 1 16-16z" fill="#a8dba8"/><path d="m26 57h-5l-.19-.22a12.22 12.22 0 0 1 -2.81-7.78h2a27.45 27.45 0 0 0 5.16 7.16z" fill="#a8dba8"/><path d="m28 17h8v8h-8z" fill="#79bd9a"/><path d="m61.6 24.2-9.6-7.28v-11.92a1 1 0 0 0 -1-1h-8a1 1 0 0 0 -1 1v4.33l-9.4-7.13a1 1 0 0 0 -1.2 0l-29 22a1 1 0 0 0 .6 1.8h6v35a1 1 0 0 0 1 1h44a1 1 0 0 0 1-1v-35h6a1 1 0 0 0 .6-1.8zm-17.6-18.2h6v9.4l-6-4.55zm-15 18v-2h2v2zm6-6v2h-2v-2zm-4 2h-2v-2h2zm2 2h2v2h-2zm4-5a1 1 0 0 0 -1-1h-8a1 1 0 0 0 -1 1v7h-14.44l19.44-14.74 19.44 14.74h-14.44zm16 43h-42v-34h42zm1.75-36-22.15-16.8a1 1 0 0 0 -1.2 0l-22.15 16.8h-3.25l26-19.74 26 19.74z" fill="#3b8686"/><path d="m17 49a13.16 13.16 0 0 0 3.05 8.42l.18.22a1 1 0 0 0 .77.36h5a1 1 0 0 0 .92-.62 1 1 0 0 0 -.21-1.09l-.84-.83a27 27 0 0 1 -4.18-5.46h8.31a17 17 0 0 0 17-17 1 1 0 0 0 -1-1h-12a17 17 0 0 0 -17 17zm6.62 7h-2.15a11.14 11.14 0 0 1 -2.42-6h.34a28.63 28.63 0 0 0 4.23 6zm6.38-8h-9.46a43.26 43.26 0 0 1 19.09-9.89 1 1 0 0 0 .75-1.2 1 1 0 0 0 -1.2-.75 45.38 45.38 0 0 0 -20 10.35 15 15 0 0 1 14.82-12.51h11a15 15 0 0 1 -15 14z" fill="#3b8686"/></svg>