<?xml version="1.0" encoding="UTF-8"?>
<svg xmlns="http://www.w3.org/2000/svg" xmlns:xlink="http://www.w3.org/1999/xlink" width="35pt" height="35pt" viewBox="0 0 35 35" version="1.1">
<g id="surface1">
<path style=" stroke:none;fill-rule:nonzero;fill:rgb(81.176471%,94.117647%,61.960784%);fill-opacity:1;" d="M 27.164062 6.988281 C 26.25 6.378906 25.703125 5.351562 25.703125 4.253906 L 25.703125 2.734375 L 23.515625 2.734375 L 23.515625 7.65625 L 27.890625 10.9375 L 27.890625 7.476562 Z M 27.164062 6.988281 "/>
<path style=" stroke:none;fill-rule:nonzero;fill:rgb(81.176471%,94.117647%,61.960784%);fill-opacity:1;" d="M 13.125 16.40625 L 29.53125 16.40625 L 29.53125 13.671875 L 5.46875 13.671875 L 5.46875 33.359375 L 29.53125 33.359375 L 29.53125 29.53125 L 20.78125 29.53125 C 15.34375 29.53125 10.9375 25.125 10.9375 19.6875 L 10.9375 18.59375 C 10.9375 17.386719 11.917969 16.40625 13.125 16.40625 Z M 13.125 16.40625 "/>
<path style=" stroke:none;fill-rule:nonzero;fill:rgb(81.176471%,94.117647%,61.960784%);fill-opacity:1;" d="M 33.359375 13.671875 L 1.640625 13.671875 L 17.5 1.640625 Z M 33.359375 13.671875 "/>
<path style=" stroke:none;fill-rule:nonzero;fill:rgb(65.882353%,85.882353%,65.882353%);fill-opacity:1;" d="M 5.246094 13.671875 L 29.753906 13.671875 L 17.5 4.375 Z M 5.246094 13.671875 "/>
<path style=" stroke:none;fill-rule:nonzero;fill:rgb(65.882353%,85.882353%,65.882353%);fill-opacity:1;" d="M 18.59375 18.046875 L 25.15625 18.046875 C 25.15625 22.878906 21.238281 26.796875 16.40625 26.796875 L 9.84375 26.796875 C 9.84375 21.964844 13.761719 18.046875 18.59375 18.046875 Z M 18.59375 18.046875 "/>
<path style=" stroke:none;fill-rule:nonzero;fill:rgb(65.882353%,85.882353%,65.882353%);fill-opacity:1;" d="M 14.21875 31.171875 L 11.484375 31.171875 L 11.378906 31.050781 C 10.390625 29.855469 9.847656 28.351562 9.84375 26.796875 L 10.9375 26.796875 C 11.660156 28.246094 12.613281 29.566406 13.757812 30.710938 Z M 14.21875 31.171875 "/>
<path style=" stroke:none;fill-rule:nonzero;fill:rgb(47.45098%,74.117647%,60.392157%);fill-opacity:1;" d="M 15.3125 9.296875 L 19.6875 9.296875 L 19.6875 13.671875 L 15.3125 13.671875 Z M 15.3125 9.296875 "/>
<path style=" stroke:none;fill-rule:nonzero;fill:rgb(23.137255%,52.54902%,52.54902%);fill-opacity:1;" d="M 33.6875 13.234375 L 28.4375 9.253906 L 28.4375 2.734375 C 28.4375 2.433594 28.191406 2.1875 27.890625 2.1875 L 23.515625 2.1875 C 23.214844 2.1875 22.96875 2.433594 22.96875 2.734375 L 22.96875 5.101562 L 17.828125 1.203125 C 17.632812 1.058594 17.367188 1.058594 17.171875 1.203125 L 1.3125 13.234375 C 1.125 13.375 1.046875 13.621094 1.121094 13.84375 C 1.195312 14.066406 1.40625 14.21875 1.640625 14.21875 L 4.921875 14.21875 L 4.921875 33.359375 C 4.921875 33.660156 5.167969 33.90625 5.46875 33.90625 L 29.53125 33.90625 C 29.832031 33.90625 30.078125 33.660156 30.078125 33.359375 L 30.078125 14.21875 L 33.359375 14.21875 C 33.59375 14.21875 33.804688 14.066406 33.878906 13.84375 C 33.953125 13.621094 33.875 13.375 33.6875 13.234375 Z M 24.0625 3.28125 L 27.34375 3.28125 L 27.34375 8.421875 L 24.0625 5.933594 Z M 15.859375 13.125 L 15.859375 12.03125 L 16.953125 12.03125 L 16.953125 13.125 Z M 19.140625 9.84375 L 19.140625 10.9375 L 18.046875 10.9375 L 18.046875 9.84375 Z M 16.953125 10.9375 L 15.859375 10.9375 L 15.859375 9.84375 L 16.953125 9.84375 Z M 18.046875 12.03125 L 19.140625 12.03125 L 19.140625 13.125 L 18.046875 13.125 Z M 20.234375 9.296875 C 20.234375 8.996094 19.988281 8.75 19.6875 8.75 L 15.3125 8.75 C 15.011719 8.75 14.765625 8.996094 14.765625 9.296875 L 14.765625 13.125 L 6.867188 13.125 L 17.5 5.0625 L 28.132812 13.125 L 20.234375 13.125 Z M 28.984375 32.8125 L 6.015625 32.8125 L 6.015625 14.21875 L 28.984375 14.21875 Z M 29.941406 13.125 L 17.828125 3.9375 C 17.632812 3.792969 17.367188 3.792969 17.171875 3.9375 L 5.058594 13.125 L 3.28125 13.125 L 17.5 2.328125 L 31.71875 13.125 Z M 29.941406 13.125 "/>
<path style=" stroke:none;fill-rule:nonzero;fill:rgb(23.137255%,52.54902%,52.54902%);fill-opacity:1;" d="M 9.296875 26.796875 C 9.296875 28.480469 9.886719 30.109375 10.964844 31.402344 L 11.0625 31.523438 C 11.167969 31.648438 11.320312 31.71875 11.484375 31.71875 L 14.21875 31.71875 C 14.441406 31.71875 14.636719 31.582031 14.722656 31.378906 C 14.808594 31.175781 14.761719 30.941406 14.605469 30.785156 L 14.148438 30.328125 C 13.261719 29.4375 12.492188 28.433594 11.863281 27.34375 L 16.40625 27.34375 C 21.539062 27.34375 25.703125 23.179688 25.703125 18.046875 C 25.703125 17.746094 25.457031 17.5 25.15625 17.5 L 18.59375 17.5 C 13.460938 17.5 9.296875 21.664062 9.296875 26.796875 Z M 12.917969 30.625 L 11.742188 30.625 C 10.984375 29.6875 10.523438 28.542969 10.417969 27.34375 L 10.605469 27.34375 C 11.230469 28.53125 12.007812 29.636719 12.917969 30.625 Z M 16.40625 26.25 L 11.234375 26.25 C 14.203125 23.597656 17.792969 21.738281 21.671875 20.839844 C 21.8125 20.808594 21.9375 20.722656 22.015625 20.597656 C 22.089844 20.476562 22.117188 20.328125 22.082031 20.183594 C 22.050781 20.042969 21.960938 19.921875 21.839844 19.84375 C 21.714844 19.765625 21.566406 19.742188 21.425781 19.773438 C 17.363281 20.710938 13.601562 22.660156 10.488281 25.433594 C 11.15625 21.480469 14.582031 18.585938 18.59375 18.59375 L 24.609375 18.59375 C 24.320312 22.910156 20.730469 26.257812 16.40625 26.25 Z M 16.40625 26.25 "/>
</g>
</svg>
